<svg width="113" height="42" viewBox="0 0 113 42" fill="none" xmlns="http://www.w3.org/2000/svg">
<path d="M35.8605 32H33.0316V11.1556H35.8605V20.0591H43.6325V11.1556H46.4912V32H43.6325V22.888H35.8605V32ZM54.8064 32.2382C53.6153 32.2382 52.5532 31.9007 51.6202 31.2258C50.707 30.5508 49.9824 29.6277 49.4464 28.4564C48.9302 27.2852 48.6722 25.965 48.6722 24.496C48.6722 23.0468 48.9302 21.7366 49.4464 20.5653C49.9824 19.3742 50.7169 18.4511 51.65 17.796C52.583 17.121 53.6351 16.7836 54.8064 16.7836C55.9777 16.7836 57.0298 17.121 57.9628 17.796C58.8959 18.4511 59.6205 19.3742 60.1366 20.5653C60.6528 21.7366 60.9108 23.0468 60.9108 24.496C60.9108 25.965 60.6528 27.2852 60.1366 28.4564C59.6205 29.6277 58.8959 30.5508 57.9628 31.2258C57.0298 31.9007 55.9777 32.2382 54.8064 32.2382ZM54.8064 29.7071C55.8188 29.7071 56.6427 29.2207 57.278 28.248C57.9132 27.2554 58.2308 26.0047 58.2308 24.496C58.2308 22.9873 57.9132 21.7465 57.278 20.7738C56.6427 19.801 55.8188 19.3147 54.8064 19.3147C53.794 19.3147 52.9602 19.801 52.3051 20.7738C51.6698 21.7465 51.3522 22.9873 51.3522 24.496C51.3522 26.0047 51.6698 27.2554 52.3051 28.248C52.9602 29.2207 53.794 29.7071 54.8064 29.7071ZM65.4699 32H62.7601V17.0218H65.4699V23.8409L70.4428 17.0218H73.5099L68.1201 24.3471L73.7779 32H70.7108L65.4699 24.8831V32ZM77.2991 32H74.5893V17.0218H77.2991V23.156H82.54V17.0218H85.22V32H82.54V25.8062H77.2991V32ZM93.2021 32.2382C92.011 32.2382 90.9489 31.9007 90.0159 31.2258C89.1027 30.5508 88.3781 29.6277 87.8421 28.4564C87.3259 27.2852 87.0679 25.965 87.0679 24.496C87.0679 23.0468 87.3259 21.7366 87.8421 20.5653C88.3781 19.3742 89.1126 18.4511 90.0456 17.796C90.9787 17.121 92.0308 16.7836 93.2021 16.7836C94.3733 16.7836 95.4255 17.121 96.3585 17.796C97.2916 18.4511 98.0162 19.3742 98.5323 20.5653C99.0485 21.7366 99.3065 23.0468 99.3065 24.496C99.3065 25.965 99.0485 27.2852 98.5323 28.4564C98.0162 29.6277 97.2916 30.5508 96.3585 31.2258C95.4255 31.9007 94.3733 32.2382 93.2021 32.2382ZM93.2021 29.7071C94.2145 29.7071 95.0384 29.2207 95.6736 28.248C96.3089 27.2554 96.6265 26.0047 96.6265 24.496C96.6265 22.9873 96.3089 21.7465 95.6736 20.7738C95.0384 19.801 94.2145 19.3147 93.2021 19.3147C92.1896 19.3147 91.3559 19.801 90.7008 20.7738C90.0655 21.7465 89.7479 22.9873 89.7479 24.496C89.7479 26.0047 90.0655 27.2554 90.7008 28.248C91.3559 29.2207 92.1896 29.7071 93.2021 29.7071ZM103.866 32H101.156V17.0218H103.866V23.8409L108.838 17.0218H111.906L106.516 24.3471L112.174 32H109.106L103.866 24.8831V32Z" fill="#262626"/>
<circle cx="19.0553" cy="15.8873" r="5.36" fill="#262626"/>
<circle cx="5.36" cy="15.8873" r="5.36" fill="#262626"/>
</svg>
