<?xml version="1.0" encoding="UTF-8"?> <svg xmlns="http://www.w3.org/2000/svg" width="34" height="36" viewBox="0 0 34 36" fill="none"><g filter="url(#filter0_ddi_5456_12759)"><rect x="5" y="3" width="24" height="26" rx="4" fill="#A9A9A9" shape-rendering="crispEdges"></rect><path d="M13.6693 13.8334L16.3359 7.83337C16.8664 7.83337 17.3751 8.04409 17.7502 8.41916C18.1252 8.79423 18.3359 9.30294 18.3359 9.83337V12.5H22.1093C22.3025 12.4979 22.494 12.5377 22.6703 12.6169C22.8467 12.696 23.0037 12.8125 23.1305 12.9584C23.2573 13.1042 23.3509 13.2759 23.4048 13.4615C23.4587 13.6472 23.4716 13.8423 23.4426 14.0334L22.5226 20.0334C22.4744 20.3513 22.3129 20.6411 22.0679 20.8494C21.8229 21.0576 21.5108 21.1703 21.1893 21.1667H13.6693M13.6693 13.8334V21.1667M13.6693 13.8334H11.6693C11.3156 13.8334 10.9765 13.9739 10.7265 14.2239C10.4764 14.4739 10.3359 14.8131 10.3359 15.1667V19.8334C10.3359 20.187 10.4764 20.5261 10.7265 20.7762C10.9765 21.0262 11.3156 21.1667 11.6693 21.1667H13.6693" stroke="white" stroke-width="1.33333" stroke-linecap="round" stroke-linejoin="round"></path></g><defs><filter id="filter0_ddi_5456_12759" x="0" y="0" width="34" height="36" filterUnits="userSpaceOnUse" color-interpolation-filters="sRGB"><feFlood flood-opacity="0" result="BackgroundImageFix"></feFlood><feColorMatrix in="SourceAlpha" type="matrix" values="0 0 0 0 0 0 0 0 0 0 0 0 0 0 0 0 0 0 127 0" result="hardAlpha"></feColorMatrix><feOffset dy="2"></feOffset><feGaussianBlur stdDeviation="2.5"></feGaussianBlur><feComposite in2="hardAlpha" operator="out"></feComposite><feColorMatrix type="matrix" values="0 0 0 0 0 0 0 0 0 0 0 0 0 0 0 0 0 0 0.3 0"></feColorMatrix><feBlend mode="normal" in2="BackgroundImageFix" result="effect1_dropShadow_5456_12759"></feBlend><feColorMatrix in="SourceAlpha" type="matrix" values="0 0 0 0 0 0 0 0 0 0 0 0 0 0 0 0 0 0 127 0" result="hardAlpha"></feColorMatrix><feOffset dy="1"></feOffset><feGaussianBlur stdDeviation="1"></feGaussianBlur><feComposite in2="hardAlpha" operator="out"></feComposite><feColorMatrix type="matrix" values="0 0 0 0 0 0 0 0 0 0 0 0 0 0 0 0 0 0 0.4 0"></feColorMatrix><feBlend mode="normal" in2="effect1_dropShadow_5456_12759" result="effect2_dropShadow_5456_12759"></feBlend><feBlend mode="normal" in="SourceGraphic" in2="effect2_dropShadow_5456_12759" result="shape"></feBlend><feColorMatrix in="SourceAlpha" type="matrix" values="0 0 0 0 0 0 0 0 0 0 0 0 0 0 0 0 0 0 127 0" result="hardAlpha"></feColorMatrix><feOffset dy="-2"></feOffset><feComposite in2="hardAlpha" operator="arithmetic" k2="-1" k3="1"></feComposite><feColorMatrix type="matrix" values="0 0 0 0 0.584314 0 0 0 0 0.584314 0 0 0 0 0.584314 0 0 0 1 0"></feColorMatrix><feBlend mode="normal" in2="shape" result="effect3_innerShadow_5456_12759"></feBlend></filter></defs></svg> 